#pragma bank 255

#include "hUGEDriver.h"
#include <stddef.h>

static const unsigned char order_cnt = 6;

static const unsigned char P0[] = {
    DN(C_6,2,0x000),
    DN(Cs6,2,0x000),
    DN(D_6,2,0x000),
    DN(C_6,3,0x000),
    DN(___,0,0xE00),
    DN(___,0,0x000),
    DN(___,0,0x000),
    DN(___,0,0x000),
    DN(___,0,0x000),
    DN(___,0,0x000),
    DN(___,0,0x000),
    DN(___,0,0x000),
    DN(___,0,0x000),
    DN(___,0,0x000),
    DN(___,0,0x000),
    DN(___,0,0xD01),
    DN(___,0,0x000),
    DN(___,0,0x000),
    DN(___,0,0x000),
    DN(___,0,0x000),
    DN(___,0,0x000),
    DN(___,0,0x000),
    DN(___,0,0x000),
    DN(___,0,0x000),
    DN(___,0,0x000),
    DN(___,0,0x000),
    DN(___,0,0x000),
    DN(___,0,0x000),
    DN(___,0,0x000),
    DN(___,0,0x000),
    DN(___,0,0x000),
    DN(___,0,0x000),
    DN(___,0,0x000),
    DN(___,0,0x000),
    DN(___,0,0x000),
    DN(___,0,0x000),
    DN(___,0,0x000),
    DN(___,0,0x000),
    DN(___,0,0x000),
    DN(___,0,0x000),
    DN(___,0,0x000),
    DN(___,0,0x000),
    DN(___,0,0x000),
    DN(___,0,0x000),
    DN(___,0,0x000),
    DN(___,0,0x000),
    DN(___,0,0x000),
    DN(___,0,0x000),
    DN(___,0,0x000),
    DN(___,0,0x000),
    DN(___,0,0x000),
    DN(___,0,0x000),
    DN(___,0,0x000),
    DN(___,0,0x000),
    DN(___,0,0x000),
    DN(___,0,0x000),
    DN(___,0,0x000),
    DN(___,0,0x000),
    DN(___,0,0x000),
    DN(___,0,0x000),
    DN(___,0,0x000),
    DN(___,0,0x000),
    DN(___,0,0x000),
    DN(___,0,0x000),
};
static const unsigned char P1[] = {
    DN(___,0,0xF02),
    DN(___,0,0xF03),
    DN(___,0,0xF02),
    DN(___,0,0xF03),
    DN(___,0,0xF02),
    DN(___,0,0xF03),
    DN(___,0,0xF02),
    DN(___,0,0xF03),
    DN(___,0,0xF02),
    DN(___,0,0xF03),
    DN(___,0,0xF02),
    DN(___,0,0xF03),
    DN(___,0,0xF02),
    DN(___,0,0xF03),
    DN(___,0,0xF02),
    DN(___,0,0xF03),
    DN(___,0,0xF02),
    DN(___,0,0xF03),
    DN(___,0,0xF02),
    DN(___,0,0xF03),
    DN(___,0,0xF02),
    DN(___,0,0xF03),
    DN(___,0,0xF02),
    DN(___,0,0xF03),
    DN(___,0,0xF02),
    DN(___,0,0xF03),
    DN(___,0,0xF02),
    DN(___,0,0xF03),
    DN(___,0,0xF02),
    DN(___,0,0xF03),
    DN(___,0,0xF02),
    DN(___,0,0xF03),
    DN(___,0,0xF02),
    DN(___,0,0xF03),
    DN(___,0,0xF02),
    DN(___,0,0xF03),
    DN(___,0,0xF02),
    DN(___,0,0xF03),
    DN(___,0,0xF02),
    DN(___,0,0xF03),
    DN(___,0,0xF02),
    DN(___,0,0xF03),
    DN(___,0,0xF02),
    DN(___,0,0xF03),
    DN(___,0,0xF02),
    DN(___,0,0xF03),
    DN(___,0,0xF02),
    DN(___,0,0xF03),
    DN(___,0,0xF02),
    DN(___,0,0xF03),
    DN(___,0,0xF02),
    DN(___,0,0xF03),
    DN(___,0,0xF02),
    DN(___,0,0xF03),
    DN(___,0,0xF02),
    DN(___,0,0xF03),
    DN(___,0,0xF02),
    DN(___,0,0xF03),
    DN(___,0,0xF02),
    DN(___,0,0xF03),
    DN(___,0,0xF02),
    DN(___,0,0xF03),
    DN(___,0,0xF02),
    DN(___,0,0xF03),
};
static const unsigned char P2[] = {
    DN(B_5,1,0x000),
    DN(___,0,0x000),
    DN(___,0,0x000),
    DN(___,0,0x000),
    DN(F_6,1,0x000),
    DN(___,0,0x000),
    DN(___,0,0x000),
    DN(___,0,0x000),
    DN(___,0,0x000),
    DN(___,0,0x000),
    DN(___,0,0x000),
    DN(___,0,0x000),
    DN(F_6,1,0x000),
    DN(___,0,0x000),
    DN(___,0,0x000),
    DN(___,0,0x000),
    DN(F_6,1,0x000),
    DN(___,0,0x000),
    DN(___,0,0x000),
    DN(___,0,0x000),
    DN(___,0,0x000),
    DN(E_6,1,0x000),
    DN(___,0,0x000),
    DN(___,0,0x000),
    DN(___,0,0x000),
    DN(___,0,0x000),
    DN(D_6,1,0x000),
    DN(___,0,0x000),
    DN(___,0,0x000),
    DN(___,0,0x000),
    DN(___,0,0x000),
    DN(___,0,0x000),
    DN(C_6,1,0x000),
    DN(___,0,0x000),
    DN(___,0,0x000),
    DN(___,0,0x000),
    DN(E_5,2,0x000),
    DN(___,0,0x000),
    DN(___,0,0x000),
    DN(___,0,0x000),
    DN(___,0,0x000),
    DN(___,0,0x000),
    DN(___,0,0x000),
    DN(___,0,0x000),
    DN(E_5,2,0x000),
    DN(___,0,0x000),
    DN(___,0,0x000),
    DN(___,0,0x000),
    DN(C_5,2,0x000),
    DN(___,0,0x000),
    DN(___,0,0x000),
    DN(___,0,0x000),
    DN(___,0,0x000),
    DN(___,0,0x000),
    DN(___,0,0x000),
    DN(___,0,0x000),
    DN(___,0,0x000),
    DN(___,0,0x000),
    DN(___,0,0x000),
    DN(___,0,0x000),
    DN(___,0,0x000),
    DN(___,0,0x000),
    DN(___,0,0x000),
    DN(___,0,0x000),
};
static const unsigned char P3[] = {
    DN(A_5,2,0x000),
    DN(___,0,0x000),
    DN(___,0,0x000),
    DN(___,0,0x000),
    DN(E_6,2,0x000),
    DN(___,0,0x000),
    DN(___,0,0x000),
    DN(___,0,0x000),
    DN(___,0,0x000),
    DN(___,0,0x000),
    DN(___,0,0x000),
    DN(___,0,0x000),
    DN(E_6,2,0x000),
    DN(___,0,0x000),
    DN(___,0,0x000),
    DN(___,0,0x000),
    DN(E_6,2,0x000),
    DN(___,0,0x000),
    DN(___,0,0x000),
    DN(___,0,0x000),
    DN(___,0,0x000),
    DN(C_6,2,0x000),
    DN(___,0,0x000),
    DN(___,0,0x000),
    DN(___,0,0x000),
    DN(___,0,0x000),
    DN(B_5,2,0x000),
    DN(___,0,0x000),
    DN(___,0,0x000),
    DN(___,0,0x000),
    DN(___,0,0x000),
    DN(___,0,0x000),
    DN(A_5,2,0x000),
    DN(___,0,0x000),
    DN(___,0,0x000),
    DN(___,0,0x000),
    DN(___,0,0x000),
    DN(___,0,0x000),
    DN(___,0,0x000),
    DN(___,0,0x000),
    DN(___,0,0x000),
    DN(___,0,0x000),
    DN(___,0,0x000),
    DN(___,0,0x000),
    DN(___,0,0x000),
    DN(___,0,0x000),
    DN(___,0,0x000),
    DN(___,0,0x000),
    DN(___,0,0x000),
    DN(___,0,0x000),
    DN(___,0,0x000),
    DN(___,0,0x000),
    DN(___,0,0x000),
    DN(___,0,0x000),
    DN(___,0,0x000),
    DN(___,0,0x000),
    DN(___,0,0x000),
    DN(___,0,0x000),
    DN(___,0,0x000),
    DN(___,0,0x000),
    DN(___,0,0x000),
    DN(___,0,0x000),
    DN(___,0,0x000),
    DN(___,0,0x000),
};
static const unsigned char P4[] = {
    DN(G_5,1,0x000),
    DN(___,0,0x000),
    DN(___,0,0x000),
    DN(___,0,0x000),
    DN(___,0,0x000),
    DN(___,0,0x000),
    DN(___,0,0x000),
    DN(___,0,0x000),
    DN(___,0,0x000),
    DN(___,0,0x000),
    DN(___,0,0x000),
    DN(___,0,0x000),
    DN(G_5,1,0x000),
    DN(___,0,0x000),
    DN(___,0,0x000),
    DN(___,0,0x000),
    DN(G_5,1,0x000),
    DN(___,0,0x000),
    DN(___,0,0x000),
    DN(___,0,0x000),
    DN(___,0,0x000),
    DN(A_5,1,0x701),
    DN(___,0,0x000),
    DN(___,0,0x000),
    DN(___,0,0x000),
    DN(___,0,0x000),
    DN(B_5,1,0x701),
    DN(___,0,0x000),
    DN(___,0,0x000),
    DN(___,0,0x000),
    DN(___,0,0x000),
    DN(___,0,0x000),
    DN(C_6,1,0x000),
    DN(___,0,0x000),
    DN(___,0,0x000),
    DN(___,0,0x000),
    DN(___,0,0x000),
    DN(___,0,0x000),
    DN(___,0,0x000),
    DN(___,0,0x000),
    DN(G_5,1,0x000),
    DN(___,0,0x000),
    DN(___,0,0x000),
    DN(___,0,0x000),
    DN(___,0,0x000),
    DN(___,0,0x000),
    DN(___,0,0x000),
    DN(___,0,0x000),
    DN(C_5,1,0x000),
    DN(___,0,0x000),
    DN(___,0,0x000),
    DN(___,0,0x000),
    DN(___,0,0x000),
    DN(___,0,0x000),
    DN(___,0,0x000),
    DN(___,0,0x000),
    DN(___,0,0x000),
    DN(___,0,0x000),
    DN(___,0,0x000),
    DN(___,0,0x000),
    DN(___,0,0x000),
    DN(___,0,0x000),
    DN(___,0,0x000),
    DN(___,0,0x000),
};
static const unsigned char P5[] = {
    DN(___,0,0x000),
    DN(___,0,0x000),
    DN(___,0,0x000),
    DN(___,0,0x000),
    DN(___,0,0x000),
    DN(___,0,0x000),
    DN(___,0,0x000),
    DN(___,0,0x000),
    DN(___,0,0x000),
    DN(___,0,0x000),
    DN(___,0,0x000),
    DN(___,0,0x000),
    DN(___,0,0x000),
    DN(___,0,0x000),
    DN(___,0,0x000),
    DN(___,0,0x000),
    DN(___,0,0x000),
    DN(___,0,0x000),
    DN(___,0,0x000),
    DN(___,0,0x000),
    DN(___,0,0x000),
    DN(___,0,0x000),
    DN(___,0,0x000),
    DN(___,0,0x000),
    DN(___,0,0x000),
    DN(___,0,0x000),
    DN(___,0,0x000),
    DN(___,0,0x000),
    DN(___,0,0x000),
    DN(___,0,0x000),
    DN(___,0,0x000),
    DN(___,0,0x000),
    DN(___,0,0x000),
    DN(___,0,0x000),
    DN(___,0,0x000),
    DN(___,0,0x000),
    DN(___,0,0x000),
    DN(___,0,0x000),
    DN(___,0,0x000),
    DN(___,0,0x000),
    DN(___,0,0x000),
    DN(___,0,0x000),
    DN(___,0,0x000),
    DN(___,0,0x000),
    DN(___,0,0x000),
    DN(___,0,0x000),
    DN(___,0,0x000),
    DN(___,0,0x000),
    DN(___,0,0x000),
    DN(___,0,0x000),
    DN(___,0,0x000),
    DN(___,0,0x000),
    DN(___,0,0x000),
    DN(___,0,0x000),
    DN(___,0,0x000),
    DN(___,0,0x000),
    DN(___,0,0x000),
    DN(___,0,0x000),
    DN(___,0,0x000),
    DN(___,0,0x000),
    DN(___,0,0x000),
    DN(___,0,0x000),
    DN(___,0,0x000),
    DN(___,0,0x000),
};
static const unsigned char P6[] = {
    DN(___,0,0x000),
    DN(___,0,0x000),
    DN(___,0,0x000),
    DN(___,0,0x000),
    DN(___,0,0x000),
    DN(___,0,0x000),
    DN(___,0,0x000),
    DN(___,0,0x000),
    DN(___,0,0x000),
    DN(___,0,0x000),
    DN(___,0,0x000),
    DN(___,0,0x000),
    DN(___,0,0x000),
    DN(___,0,0x000),
    DN(___,0,0x000),
    DN(___,0,0x000),
    DN(___,0,0x000),
    DN(___,0,0x000),
    DN(___,0,0x000),
    DN(___,0,0x000),
    DN(___,0,0x000),
    DN(___,0,0x000),
    DN(___,0,0x000),
    DN(___,0,0x000),
    DN(___,0,0x000),
    DN(___,0,0x000),
    DN(___,0,0x000),
    DN(___,0,0x000),
    DN(___,0,0x000),
    DN(___,0,0x000),
    DN(___,0,0x000),
    DN(___,0,0x000),
    DN(___,0,0x000),
    DN(___,0,0x000),
    DN(___,0,0x000),
    DN(___,0,0x000),
    DN(___,0,0x000),
    DN(___,0,0x000),
    DN(___,0,0x000),
    DN(___,0,0x000),
    DN(___,0,0x000),
    DN(___,0,0x000),
    DN(___,0,0x000),
    DN(___,0,0x000),
    DN(___,0,0x000),
    DN(___,0,0x000),
    DN(___,0,0x000),
    DN(___,0,0x000),
    DN(___,0,0x000),
    DN(___,0,0x000),
    DN(___,0,0x000),
    DN(___,0,0x000),
    DN(___,0,0x000),
    DN(___,0,0x000),
    DN(___,0,0x000),
    DN(___,0,0x000),
    DN(___,0,0x000),
    DN(___,0,0x000),
    DN(___,0,0x000),
    DN(___,0,0x000),
    DN(___,0,0x000),
    DN(___,0,0x000),
    DN(___,0,0x000),
    DN(___,0,0xB03),
};

static const unsigned char itSquareSP2[] = {
    DN(___,0,0x20F),
    DN(___,0,0x20F),
    DN(___,0,0x20F),
    DN(___,0,0x20F),
    DN(___,0,0x20F),
    DN(___,0,0x20F),
    DN(___,0,0x20F),
    DN(___,0,0x20F),
    DN(___,0,0x20F),
    DN(___,0,0x20F),
    DN(___,0,0x20F),
    DN(___,0,0x20F),
    DN(___,0,0x20F),
    DN(___,0,0x20F),
    DN(___,0,0x20F),
    DN(___,0,0x20F),
    DN(___,0,0x20F),
    DN(___,0,0x20F),
    DN(___,0,0x20F),
    DN(___,0,0x20F),
    DN(___,0,0x20F),
    DN(___,0,0x20F),
    DN(___,0,0x20F),
    DN(___,0,0x20F),
    DN(___,0,0x20F),
    DN(___,0,0x20F),
    DN(___,0,0x20F),
    DN(___,0,0x20F),
    DN(___,0,0x20F),
    DN(___,0,0x20F),
    DN(___,0,0x20F),
    DN(___,1,0x20F),
};
static const unsigned char itSquareSP3[] = {
    DN(___,0,0x20F),
    DN(___,0,0x20F),
    DN(___,0,0x20F),
    DN(___,0,0x20F),
    DN(___,0,0x20F),
    DN(___,0,0x20F),
    DN(___,0,0x20F),
    DN(___,0,0x20F),
    DN(___,0,0x20F),
    DN(___,0,0x20F),
    DN(___,0,0x20F),
    DN(___,0,0x20F),
    DN(___,0,0x20F),
    DN(___,0,0x20F),
    DN(___,0,0x20F),
    DN(___,0,0x20F),
    DN(___,0,0x20F),
    DN(___,0,0x20F),
    DN(___,0,0x20F),
    DN(___,0,0x20F),
    DN(___,0,0x20F),
    DN(___,0,0x20F),
    DN(___,0,0x20F),
    DN(___,0,0x20F),
    DN(___,0,0x20F),
    DN(___,0,0x20F),
    DN(___,0,0x20F),
    DN(___,0,0x20F),
    DN(___,0,0x20F),
    DN(___,0,0x20F),
    DN(___,0,0x20F),
    DN(___,1,0x20F),
};
static const unsigned char* const order1[] = {P0,P2,P6};
static const unsigned char* const order2[] = {P5,P3,P6};
static const unsigned char* const order3[] = {P5,P4,P6};
static const unsigned char* const order4[] = {P5,P1,P6};

static const hUGEDutyInstr_t duty_instruments[] = {
    {8,128,241,0,128},
    {14,128,241,itSquareSP2,128},
    {8,0,241,itSquareSP3,128},
};
static const hUGEWaveInstr_t wave_instruments[] = {
    {209,32,0,0,192},
};
static const hUGENoiseInstr_t noise_instruments[] = {
    {193,0,119,0,0},
    {193,0,0,0,0},
};

static const unsigned char waves[] = {
    1,35,69,103,137,171,205,239,254,220,186,152,118,84,50,16,
};

const void __at(255) __bank_music_defeat;
const hUGESong_t music_defeat = {3, &order_cnt, order1, order2, order3,order4, duty_instruments, wave_instruments, noise_instruments, NULL, waves};
